<svg width="60" height="54" viewBox="0 0 60 54" fill="none" xmlns="http://www.w3.org/2000/svg">
<rect x="0.0234375" y="0.00195312" width="59.3161" height="53.7721" rx="7.4363" fill="#4563E5"/>
<path d="M20.0234 35.9282C20.0234 34.3885 20.4676 32.8815 21.3028 31.5881C22.138 30.2946 23.3287 29.2697 24.732 28.6362C26.1354 28.0027 27.6917 27.7877 29.2142 28.0169C30.7367 28.246 32.1608 28.9097 33.3154 29.9282" stroke="white" stroke-width="1.5" stroke-linecap="round" stroke-linejoin="round"/>
<path d="M28.0234 27.9277C30.7849 27.9277 33.0234 25.6892 33.0234 22.9277C33.0234 20.1663 30.7849 17.9277 28.0234 17.9277C25.262 17.9277 23.0234 20.1663 23.0234 22.9277C23.0234 25.6892 25.262 27.9277 28.0234 27.9277Z" stroke="white" stroke-width="1.5" stroke-linecap="round" stroke-linejoin="round"/>
<path d="M34.0234 33.9277L36.0234 35.9277L40.0234 31.9277" stroke="white" stroke-width="1.5" stroke-linecap="round" stroke-linejoin="round"/>
</svg>
