<svg width="60" height="54" viewBox="0 0 60 54" fill="none" xmlns="http://www.w3.org/2000/svg">
<rect x="0.0234375" y="0.00195312" width="59.3161" height="53.7721" rx="7.4363" fill="#FB7849"/>
<path d="M24.0234 36.9277V18.9277C24.0234 18.3973 24.2342 17.8886 24.6092 17.5135C24.9843 17.1384 25.493 16.9277 26.0234 16.9277H34.0234C34.5539 16.9277 35.0626 17.1384 35.4377 17.5135C35.8127 17.8886 36.0234 18.3973 36.0234 18.9277V36.9277H24.0234Z" stroke="white" stroke-width="1.5" stroke-linecap="round" stroke-linejoin="round"/>
<path d="M24.0234 26.9277H22.0234C21.493 26.9277 20.9843 27.1384 20.6092 27.5135C20.2342 27.8886 20.0234 28.3973 20.0234 28.9277V34.9277C20.0234 35.4582 20.2342 35.9669 20.6092 36.3419C20.9843 36.717 21.493 36.9277 22.0234 36.9277H24.0234" stroke="white" stroke-width="1.5" stroke-linecap="round" stroke-linejoin="round"/>
<path d="M36.0234 23.9277H38.0234C38.5539 23.9277 39.0626 24.1384 39.4377 24.5135C39.8127 24.8886 40.0234 25.3973 40.0234 25.9277V34.9277C40.0234 35.4582 39.8127 35.9669 39.4377 36.3419C39.0626 36.717 38.5539 36.9277 38.0234 36.9277H36.0234" stroke="white" stroke-width="1.5" stroke-linecap="round" stroke-linejoin="round"/>
<path d="M28.0234 20.9277H32.0234" stroke="white" stroke-width="1.5" stroke-linecap="round" stroke-linejoin="round"/>
<path d="M28.0234 24.9277H32.0234" stroke="white" stroke-width="1.5" stroke-linecap="round" stroke-linejoin="round"/>
<path d="M28.0234 28.9277H32.0234" stroke="white" stroke-width="1.5" stroke-linecap="round" stroke-linejoin="round"/>
<path d="M28.0234 32.9277H32.0234" stroke="white" stroke-width="1.5" stroke-linecap="round" stroke-linejoin="round"/>
</svg>
