<svg width="31" height="31" viewBox="0 0 31 31" fill="none" xmlns="http://www.w3.org/2000/svg">
<path d="M3.03125 27.1783C3.03114 25.2537 3.58642 23.37 4.63043 21.7531C5.67445 20.1363 7.16284 18.8551 8.917 18.0633C10.6712 17.2715 12.6165 17.0027 14.5197 17.2891C16.4229 17.5756 18.2029 18.4052 19.6462 19.6783" stroke="#505050" stroke-width="1.5" stroke-linecap="round" stroke-linejoin="round"/>
<path d="M13.0312 17.1777C16.483 17.1777 19.2812 14.3795 19.2812 10.9277C19.2812 7.47595 16.483 4.67773 13.0312 4.67773C9.57947 4.67773 6.78125 7.47595 6.78125 10.9277C6.78125 14.3795 9.57947 17.1777 13.0312 17.1777Z" stroke="#505050" stroke-width="1.5" stroke-linecap="round" stroke-linejoin="round"/>
<path d="M20.5312 24.6777L23.0312 27.1777L28.0312 22.1777" stroke="#505050" stroke-width="1.5" stroke-linecap="round" stroke-linejoin="round"/>
</svg>
