<svg width="25" height="25" viewBox="0 0 25 25" fill="none" xmlns="http://www.w3.org/2000/svg">
<path d="M9.53125 3.92773H4.53125C3.97897 3.92773 3.53125 4.37545 3.53125 4.92773V11.9277C3.53125 12.48 3.97897 12.9277 4.53125 12.9277H9.53125C10.0835 12.9277 10.5312 12.48 10.5312 11.9277V4.92773C10.5312 4.37545 10.0835 3.92773 9.53125 3.92773Z" stroke="black" stroke-width="1.5" stroke-linecap="round" stroke-linejoin="round"/>
<path d="M20.5312 3.92773H15.5312C14.979 3.92773 14.5312 4.37545 14.5312 4.92773V7.92773C14.5312 8.48002 14.979 8.92773 15.5312 8.92773H20.5312C21.0835 8.92773 21.5312 8.48002 21.5312 7.92773V4.92773C21.5312 4.37545 21.0835 3.92773 20.5312 3.92773Z" stroke="black" stroke-width="1.5" stroke-linecap="round" stroke-linejoin="round"/>
<path d="M20.5312 12.9277H15.5312C14.979 12.9277 14.5312 13.3754 14.5312 13.9277V20.9277C14.5312 21.48 14.979 21.9277 15.5312 21.9277H20.5312C21.0835 21.9277 21.5312 21.48 21.5312 20.9277V13.9277C21.5312 13.3754 21.0835 12.9277 20.5312 12.9277Z" stroke="black" stroke-width="1.5" stroke-linecap="round" stroke-linejoin="round"/>
<path d="M9.53125 16.9277H4.53125C3.97897 16.9277 3.53125 17.3754 3.53125 17.9277V20.9277C3.53125 21.48 3.97897 21.9277 4.53125 21.9277H9.53125C10.0835 21.9277 10.5312 21.48 10.5312 20.9277V17.9277C10.5312 17.3754 10.0835 16.9277 9.53125 16.9277Z" stroke="black" stroke-width="1.5" stroke-linecap="round" stroke-linejoin="round"/>
</svg>
