<svg width="31" height="31" viewBox="0 0 31 31" fill="none" xmlns="http://www.w3.org/2000/svg">
<path d="M8.03125 28.4277V5.92773C8.03125 5.26469 8.29464 4.62881 8.76348 4.15997C9.23232 3.69113 9.86821 3.42773 10.5312 3.42773H20.5312C21.1943 3.42773 21.8302 3.69113 22.299 4.15997C22.7679 4.62881 23.0312 5.26469 23.0312 5.92773V28.4277H8.03125Z" stroke="#5E5E5E" stroke-width="1.5" stroke-linecap="round" stroke-linejoin="round"/>
<path d="M8.03125 15.9277H5.53125C4.86821 15.9277 4.23232 16.1911 3.76348 16.66C3.29464 17.1288 3.03125 17.7647 3.03125 18.4277V25.9277C3.03125 26.5908 3.29464 27.2267 3.76348 27.6955C4.23232 28.1643 4.86821 28.4277 5.53125 28.4277H8.03125" stroke="#5E5E5E" stroke-width="1.5" stroke-linecap="round" stroke-linejoin="round"/>
<path d="M23.0312 12.1777H25.5312C26.1943 12.1777 26.8302 12.4411 27.299 12.91C27.7679 13.3788 28.0312 14.0147 28.0312 14.6777V25.9277C28.0312 26.5908 27.7679 27.2267 27.299 27.6955C26.8302 28.1643 26.1943 28.4277 25.5312 28.4277H23.0312" stroke="#5E5E5E" stroke-width="1.5" stroke-linecap="round" stroke-linejoin="round"/>
<path d="M13.0312 8.42773H18.0312" stroke="#5E5E5E" stroke-width="1.5" stroke-linecap="round" stroke-linejoin="round"/>
<path d="M13.0312 13.4277H18.0312" stroke="#5E5E5E" stroke-width="1.5" stroke-linecap="round" stroke-linejoin="round"/>
<path d="M13.0312 18.4277H18.0312" stroke="#5E5E5E" stroke-width="1.5" stroke-linecap="round" stroke-linejoin="round"/>
<path d="M13.0312 23.4277H18.0312" stroke="#5E5E5E" stroke-width="1.5" stroke-linecap="round" stroke-linejoin="round"/>
</svg>
