<svg width="31" height="31" viewBox="0 0 31 31" fill="none" xmlns="http://www.w3.org/2000/svg">
<path d="M15.8048 3.42773H15.2548C14.5917 3.42773 13.9559 3.69113 13.487 4.15997C13.0182 4.62881 12.7548 5.26469 12.7548 5.92773V6.15273C12.7543 6.59114 12.6386 7.02172 12.4192 7.40128C12.1998 7.78084 11.8845 8.09603 11.5048 8.31523L10.9673 8.62773C10.5872 8.84716 10.1561 8.96267 9.71729 8.96267C9.27845 8.96267 8.84734 8.84716 8.46729 8.62773L8.27979 8.52773C7.70612 8.19681 7.02458 8.10704 6.38479 8.27812C5.745 8.4492 5.19923 8.86715 4.86729 9.44023L4.59229 9.91523C4.26137 10.4889 4.17159 11.1704 4.34267 11.8102C4.51375 12.45 4.93171 12.9958 5.50479 13.3277L5.69229 13.4527C6.07013 13.6709 6.38431 13.9841 6.6036 14.3613C6.82289 14.7385 6.93965 15.1664 6.94229 15.6027V16.2402C6.94404 16.6808 6.82935 17.1139 6.60984 17.4959C6.39033 17.8778 6.0738 18.195 5.69229 18.4152L5.50479 18.5277C4.93171 18.8597 4.51375 19.4054 4.34267 20.0452C4.17159 20.685 4.26137 21.3666 4.59229 21.9402L4.86729 22.4152C5.19923 22.9883 5.745 23.4063 6.38479 23.5773C7.02458 23.7484 7.70612 23.6587 8.27979 23.3277L8.46729 23.2277C8.84734 23.0083 9.27845 22.8928 9.71729 22.8928C10.1561 22.8928 10.5872 23.0083 10.9673 23.2277L11.5048 23.5402C11.8845 23.7594 12.1998 24.0746 12.4192 24.4542C12.6386 24.8337 12.7543 25.2643 12.7548 25.7027V25.9277C12.7548 26.5908 13.0182 27.2267 13.487 27.6955C13.9559 28.1643 14.5917 28.4277 15.2548 28.4277H15.8048C16.4678 28.4277 17.1037 28.1643 17.5726 27.6955C18.0414 27.2267 18.3048 26.5908 18.3048 25.9277V25.7027C18.3052 25.2643 18.421 24.8337 18.6404 24.4542C18.8598 24.0746 19.1751 23.7594 19.5548 23.5402L20.0923 23.2277C20.4723 23.0083 20.9034 22.8928 21.3423 22.8928C21.7811 22.8928 22.2122 23.0083 22.5923 23.2277L22.7798 23.3277C23.3535 23.6587 24.035 23.7484 24.6748 23.5773C25.3146 23.4063 25.8603 22.9883 26.1923 22.4152L26.4673 21.9277C26.7982 21.3541 26.888 20.6725 26.7169 20.0327C26.5458 19.3929 26.1279 18.8472 25.5548 18.5152L25.3673 18.4152C24.9858 18.195 24.6692 17.8778 24.4497 17.4959C24.2302 17.1139 24.1155 16.6808 24.1173 16.2402V15.6152C24.1155 15.1747 24.2302 14.7415 24.4497 14.3596C24.6692 13.9777 24.9858 13.6605 25.3673 13.4402L25.5548 13.3277C26.1279 12.9958 26.5458 12.45 26.7169 11.8102C26.888 11.1704 26.7982 10.4889 26.4673 9.91523L26.1923 9.44023C25.8603 8.86715 25.3146 8.4492 24.6748 8.27812C24.035 8.10704 23.3535 8.19681 22.7798 8.52773L22.5923 8.62773C22.2122 8.84716 21.7811 8.96267 21.3423 8.96267C20.9034 8.96267 20.4723 8.84716 20.0923 8.62773L19.5548 8.31523C19.1751 8.09603 18.8598 7.78084 18.6404 7.40128C18.421 7.02172 18.3052 6.59114 18.3048 6.15273V5.92773C18.3048 5.26469 18.0414 4.62881 17.5726 4.15997C17.1037 3.69113 16.4678 3.42773 15.8048 3.42773Z" stroke="#5E5E5E" stroke-width="2" stroke-linecap="round" stroke-linejoin="round"/>
<path d="M15.5312 19.6777C17.6023 19.6777 19.2812 17.9988 19.2812 15.9277C19.2812 13.8567 17.6023 12.1777 15.5312 12.1777C13.4602 12.1777 11.7812 13.8567 11.7812 15.9277C11.7812 17.9988 13.4602 19.6777 15.5312 19.6777Z" stroke="#5E5E5E" stroke-width="2" stroke-linecap="round" stroke-linejoin="round"/>
</svg>
