<svg width="25" height="25" viewBox="0 0 25 25" fill="none" xmlns="http://www.w3.org/2000/svg">
<path d="M20.5312 13.602C20.5312 18.602 17.0312 21.102 12.8713 22.552C12.6534 22.6258 12.4168 22.6223 12.2013 22.542C8.03125 21.102 4.53125 18.602 4.53125 13.602V6.60201C4.53125 6.3368 4.63661 6.08244 4.82414 5.89491C5.01168 5.70737 5.26603 5.60201 5.53125 5.60201C7.53125 5.60201 10.0312 4.40201 11.7712 2.88201C11.9831 2.70101 12.2526 2.60156 12.5312 2.60156C12.8099 2.60156 13.0794 2.70101 13.2913 2.88201C15.0413 4.41201 17.5312 5.60201 19.5312 5.60201C19.7965 5.60201 20.0508 5.70737 20.2384 5.89491C20.4259 6.08244 20.5312 6.3368 20.5312 6.60201V13.602Z" stroke="#5E5E5E" stroke-width="2" stroke-linecap="round" stroke-linejoin="round"/>
<path d="M9.53125 12.6016L11.5312 14.6016L15.5312 10.6016" stroke="#5E5E5E" stroke-width="2" stroke-linecap="round" stroke-linejoin="round"/>
</svg>
